<svg width="744" height="694" viewBox="0 0 744 694" fill="none" xmlns="http://www.w3.org/2000/svg">
<rect width="744" height="694" rx="122" fill="#01512E"/>
<g clip-path="url(#clip0_202_16)">
<path d="M120 302.44H180.08V417.59H217.21V302.44H277.29V271.57H120V302.44Z" fill="white"/>
<path d="M465.65 271.57H419.76L388.26 308.7C384.78 313.29 382.32 317.15 380.85 320.28C379.39 323.41 378.66 326.43 378.66 329.35V331.85H375.11V329.35C375.11 326.43 374.38 323.41 372.92 320.28C371.46 317.15 368.99 313.29 365.51 308.7L334.01 271.57H288.12L349.66 343.54L286.04 417.59H332.77L366.77 377.54C369.83 373.51 371.99 370.13 373.24 367.42C374.49 364.71 375.12 361.89 375.12 358.97V357.09H378.67V358.97C378.67 361.89 379.3 364.71 380.55 367.42C381.8 370.13 383.96 373.51 387.02 377.54L421.02 417.59H467.75L404.13 343.54L465.65 271.57Z" fill="white"/>
<path d="M536.58 417.59H573.71V302.44H633.78V271.57H476.5V302.44H536.58V417.59Z" fill="white"/>
</g>
<defs>
<clipPath id="clip0_202_16">
<rect width="503.03" height="163.42" fill="white" transform="translate(120 265)"/>
</clipPath>
</defs>
</svg>
