<svg width="32" height="32" viewBox="0 0 32 32" fill="none" xmlns="http://www.w3.org/2000/svg">
<path fill-rule="evenodd" clip-rule="evenodd" d="M25.286 22.146L23.722 20.582C22.9407 19.8006 21.674 19.8006 20.894 20.582L19.6647 21.8113C19.39 22.086 18.974 22.178 18.6194 22.022C16.838 21.242 15.078 20.0593 13.5087 18.49C11.946 16.9273 10.7674 15.1753 9.98605 13.4006C9.82338 13.034 9.91805 12.6033 10.202 12.3193L11.3034 11.218C12.198 10.3233 12.198 9.05797 11.4167 8.27664L9.85271 6.71264C8.81138 5.67131 7.12338 5.67131 6.08205 6.71264L5.21272 7.58064C4.22472 8.56864 3.81272 9.99397 4.07938 11.4073C4.73805 14.8913 6.76205 18.706 10.0274 21.9713C13.2927 25.2366 17.1074 27.2606 20.5914 27.9193C22.0047 28.186 23.43 27.774 24.418 26.786L25.286 25.918C26.3274 24.8766 26.3274 23.1886 25.286 22.146V22.146Z" fill="#004F2E" stroke="#004F2E" stroke-width="1.5" stroke-linecap="round" stroke-linejoin="round"/>
<path d="M17.332 9.32081C18.7067 9.30214 20.088 9.81147 21.1374 10.8608" stroke="#004F2E" stroke-width="1.5" stroke-linecap="round" stroke-linejoin="round"/>
<path d="M24.908 7.08984C22.816 4.99784 20.0734 3.95117 17.332 3.95117" stroke="#004F2E" stroke-width="1.5" stroke-linecap="round" stroke-linejoin="round"/>
<path d="M22.6787 14.6657C22.6973 13.291 22.188 11.9097 21.1387 10.8604" stroke="#004F2E" stroke-width="1.5" stroke-linecap="round" stroke-linejoin="round"/>
<path d="M24.9082 7.08984C27.0002 9.18184 28.0469 11.9245 28.0469 14.6658" stroke="#004F2E" stroke-width="1.5" stroke-linecap="round" stroke-linejoin="round"/>
</svg>
