<svg width="220" height="22" viewBox="0 0 220 22" fill="none" xmlns="http://www.w3.org/2000/svg">
<g clip-path="url(#clip0_207_2)">
<path d="M8.24539 20.9415V5.13827H0V0.901672H21.5865V5.13827H13.3411V20.9415H8.24539Z" fill="white"/>
<path d="M22.7886 20.9415L31.5198 10.7788L23.0741 0.901672H29.372L33.6951 5.9974C34.1713 6.62733 34.5117 7.15708 34.7121 7.58664C34.9124 8.0162 35.0126 8.43066 35.0126 8.83141V9.17451H35.4998V8.83141C35.4998 8.43066 35.6 8.0162 35.8004 7.58664C36.0007 7.15708 36.3397 6.62733 36.8173 5.9974L41.1404 0.901672H47.4383L38.9926 10.7788L47.7238 20.9415H41.3106L36.6444 15.445C36.2244 14.8919 35.928 14.4281 35.7565 14.0561C35.5849 13.6842 35.4984 13.2972 35.4984 12.8965V12.6384H35.0112V12.8965C35.0112 13.2972 34.9248 13.6842 34.7532 14.0561C34.5817 14.4281 34.2852 14.8919 33.8653 15.445L29.1991 20.9415H22.7859H22.7886Z" fill="white"/>
<path d="M57.1714 20.9415V5.13827H48.926V0.901672H70.5125V5.13827H62.2671V20.9415H57.1714Z" fill="white"/>
<path d="M92.67 21.2846C90.1695 21.2846 87.9943 20.8317 86.1429 19.9245C84.2915 19.0187 82.8793 17.7822 81.9063 16.2177C80.9332 14.6531 80.446 12.8868 80.446 10.9216C80.446 8.95629 80.9415 7.18589 81.9351 5.61037C82.9274 4.03623 84.3835 2.79969 86.3007 1.90352C88.2193 1.00734 90.514 0.558563 93.186 0.558563C95.7058 0.558563 97.8673 0.920877 99.6706 1.64688C101.474 2.37288 102.896 3.35552 103.936 4.59617C104.976 5.83682 105.668 7.22981 106.011 8.7765H103.006C102.68 7.7074 102.118 6.74809 101.316 5.89995C100.515 5.05043 99.4264 4.37384 98.0526 3.86742C96.6788 3.36238 95.0566 3.10848 93.186 3.10848C91.1439 3.10848 89.3872 3.45158 87.9188 4.13916C86.4489 4.82673 85.3373 5.75585 84.5838 6.93062C83.829 8.10402 83.453 9.43525 83.453 10.9243C83.453 12.4134 83.829 13.816 84.5838 15.0182C85.3373 16.2204 86.4489 17.1646 87.9188 17.8522C89.3886 18.5398 91.1535 18.8829 93.2149 18.8829C95.2762 18.8829 97.1317 18.4958 98.5535 17.7232C99.9753 16.9505 101.029 16.0104 101.717 14.9029C102.404 13.7967 102.748 12.7373 102.748 11.7258L103.607 13.2148H91.1535V10.9531H105.439V20.9442H102.748L103.32 15.8197H102.948C102.586 16.6788 101.998 17.5132 101.187 18.3243C100.376 19.1354 99.2548 19.8326 97.8234 20.4145C96.392 20.9964 94.6737 21.2873 92.67 21.2873V21.2846Z" fill="white"/>
<path d="M110.305 20.9415V0.901672H123.217C124.839 0.901672 126.232 1.16929 127.397 1.70315C128.561 2.23702 129.444 2.96714 130.046 3.89351C130.647 4.81988 130.948 5.85467 130.948 6.99925C130.948 8.14383 130.705 9.12784 130.218 10.0048C129.73 10.8831 129.058 11.5693 128.199 12.0662C127.34 12.563 126.386 12.81 125.336 12.81H124.62L126.109 11.9221V13.9546L125.193 13.1243H125.451C126.253 13.1243 126.896 13.2107 127.384 13.3823C127.871 13.5538 128.295 13.8599 128.657 14.2977C129.019 14.7368 129.401 15.3764 129.802 16.2163L132.006 20.9401H128.513L126.194 15.8444C125.907 15.2144 125.606 14.7423 125.292 14.4281C124.978 14.1124 124.576 13.8942 124.09 13.7693C123.603 13.6458 122.93 13.5827 122.071 13.5827H112.423V11.207H123.216C124.246 11.207 125.119 11.0451 125.836 10.7198C126.552 10.3959 127.08 9.94168 127.425 9.35978C127.768 8.77788 127.939 8.0958 127.939 7.31353C127.939 6.53126 127.768 5.878 127.425 5.29473C127.082 4.71283 126.552 4.25994 125.836 3.93468C125.12 3.61079 124.246 3.44748 123.216 3.44748H113.196V12.6398L113.282 12.7537V20.9415H110.305Z" fill="white"/>
<path d="M147.894 21.2846C145.145 21.2846 142.789 20.8358 140.824 19.9396C138.858 19.0421 137.373 17.811 136.371 16.2465C135.37 14.6819 134.869 12.9074 134.869 10.9216C134.869 8.9357 135.37 7.16256 136.371 5.59665C137.373 4.03211 138.857 2.80107 140.824 1.90352C142.789 1.00734 145.147 0.558563 147.894 0.558563C150.642 0.558563 152.999 1.00734 154.965 1.90352C156.93 2.80107 158.415 4.03211 159.417 5.59665C160.419 7.16118 160.92 8.93707 160.92 10.9216C160.92 12.9061 160.419 14.6819 159.417 16.2465C158.415 17.811 156.93 19.0421 154.965 19.9396C152.999 20.8372 150.642 21.2846 147.894 21.2846ZM147.894 18.736C150.031 18.736 151.855 18.3929 153.362 17.7053C154.869 17.0178 156.005 16.0887 156.768 14.9139C157.531 13.7405 157.913 12.4092 157.913 10.9202C157.913 9.43114 157.531 8.09991 156.768 6.9265C156.005 5.7531 154.869 4.82261 153.362 4.13504C151.853 3.44747 150.031 3.10437 147.894 3.10437C145.757 3.10437 143.933 3.44747 142.426 4.13504C140.918 4.82261 139.783 5.75173 139.02 6.9265C138.257 8.09991 137.876 9.43114 137.876 10.9202C137.876 12.4092 138.257 13.7405 139.02 14.9139C139.783 16.0873 140.92 17.0178 142.426 17.7053C143.933 18.3929 145.757 18.736 147.894 18.736Z" fill="white"/>
<path d="M176.093 21.2846C173.669 21.2846 171.637 20.8976 169.995 20.1249C168.354 19.3522 167.123 18.2502 166.302 16.8188C165.481 15.3874 165.071 13.6691 165.071 11.6654V0.901672H168.048V11.5803C168.048 13.0502 168.343 14.31 168.936 15.3585C169.527 16.4084 170.419 17.2099 171.612 17.763C172.805 18.3174 174.298 18.5933 176.093 18.5933C178.746 18.5933 180.745 17.9826 182.09 16.7611C183.435 15.5397 184.109 13.8118 184.109 11.579V0.901672H187.115V11.6654C187.115 14.6998 186.179 17.0617 184.309 18.7511C182.439 20.4405 179.701 21.2846 176.093 21.2846Z" fill="white"/>
<path d="M192.268 20.9415V0.901672H204.836C206.572 0.901672 208.033 1.17341 209.217 1.71688C210.4 2.26035 211.288 3.02478 211.879 4.00742C212.471 4.99143 212.767 6.14013 212.767 7.45763C212.767 8.77514 212.471 9.92933 211.879 10.9216C211.288 11.9138 210.4 12.6824 209.217 13.2258C208.034 13.7693 206.574 14.041 204.836 14.041H194.273V11.465H204.836C205.905 11.465 206.811 11.3031 207.556 10.9778C208.3 10.654 208.855 10.1901 209.217 9.58897C209.579 8.98786 209.76 8.27696 209.76 7.45626C209.76 6.63556 209.579 5.95348 209.217 5.35237C208.855 4.75126 208.302 4.28327 207.556 3.94978C206.813 3.61628 205.905 3.44885 204.836 3.44885H195.159V13.2121L195.246 13.2986V20.9428H192.269L192.268 20.9415Z" fill="white"/>
<path d="M217.467 5.05455C217.108 5.05455 216.776 4.99005 216.472 4.86104C216.165 4.73204 215.899 4.55225 215.67 4.32032C215.441 4.08838 215.264 3.82076 215.136 3.51472C215.01 3.20867 214.947 2.8793 214.947 2.52659C214.947 2.17388 215.011 1.84451 215.14 1.53846C215.269 1.23242 215.448 0.964797 215.677 0.732861C215.906 0.500926 216.175 0.321141 216.483 0.192135C216.79 0.0631296 217.123 -0.00137329 217.482 -0.00137329C217.84 -0.00137329 218.172 0.0617572 218.481 0.188018C218.788 0.314279 219.056 0.492691 219.282 0.721882C219.509 0.951073 219.686 1.21732 219.812 1.52062C219.938 1.82392 220.001 2.15467 220.001 2.51287C220.001 2.87106 219.937 3.20318 219.808 3.51197C219.679 3.81939 219.499 4.08975 219.267 4.32032C219.035 4.55225 218.768 4.73204 218.461 4.86104C218.155 4.99005 217.825 5.05455 217.467 5.05455ZM217.467 4.73204C217.777 4.73204 218.065 4.6744 218.332 4.56049C218.6 4.44658 218.833 4.28875 219.034 4.08838C219.234 3.88801 219.389 3.65333 219.499 3.38297C219.609 3.11398 219.664 2.82303 219.664 2.51287C219.664 2.2027 219.609 1.9145 219.499 1.64688C219.389 1.37926 219.237 1.1487 219.041 0.952445C218.844 0.757564 218.615 0.602483 218.35 0.491319C218.085 0.378782 217.796 0.322513 217.48 0.322513C217.165 0.322513 216.872 0.378782 216.603 0.491319C216.333 0.603856 216.101 0.760309 215.905 0.963425C215.708 1.16654 215.556 1.39985 215.446 1.66472C215.337 1.92959 215.282 2.2178 215.282 2.52796C215.282 2.83812 215.337 3.1277 215.446 3.39395C215.556 3.66156 215.708 3.89487 215.905 4.09524C216.101 4.29561 216.332 4.45207 216.599 4.5646C216.867 4.67714 217.155 4.73341 217.465 4.73341L217.467 4.73204ZM216.456 3.95938V1.09518H217.602C217.965 1.09518 218.249 1.18301 218.455 1.36005C218.659 1.53709 218.762 1.77314 218.762 2.06821C218.762 2.36327 218.659 2.61168 218.455 2.7846C218.249 2.95615 217.965 3.04261 217.602 3.04261H216.944V3.95938H216.456ZM216.937 2.64187H217.567C217.796 2.64187 217.973 2.59109 218.101 2.49091C218.227 2.39072 218.29 2.24936 218.29 2.06821C218.29 1.88705 218.227 1.74707 218.101 1.64963C217.974 1.55218 217.796 1.50278 217.567 1.50278H216.937V2.6405V2.64187ZM218.319 3.95938L217.602 2.85734H218.096L218.813 3.95938H218.319Z" fill="white"/>
</g>
<defs>
<clipPath id="clip0_207_2">
<rect width="220" height="21.2846" fill="white"/>
</clipPath>
</defs>
</svg>
