<svg width="17" height="15" viewBox="0 0 17 15" fill="none" xmlns="http://www.w3.org/2000/svg">
<path d="M15.9058 0.101636C15.7594 0.15771 12.3104 1.54556 8.23941 3.18575C4.16843 4.82944 0.716081 6.23481 0.563087 6.30841C0.413418 6.38551 0.23049 6.51168 0.157319 6.58879C0.0675182 6.68341 0.0176288 6.77103 0.00432491 6.86215C-0.00565298 6.93925 0.000998949 7.03037 0.0309326 7.09346C0.0542144 7.14603 0.120734 7.22664 0.173949 7.2722C0.23049 7.31425 0.320291 7.37383 0.373507 7.40187C0.430048 7.43341 1.3713 7.75234 2.46886 8.10981L4.46444 8.76519C11.5022 4.1285 13.5975 2.76168 13.6607 2.74065C13.7239 2.71612 13.8171 2.6986 13.8703 2.6986C13.9202 2.6986 13.9833 2.72313 14.01 2.75117C14.0499 2.79322 14.0532 2.81776 14.0199 2.88785C13.9967 2.93341 12.337 4.52103 10.3348 6.41355C8.33254 8.30958 6.68619 9.87617 6.67953 9.8972C6.67288 9.91822 6.60636 10.8645 6.52987 11.9965L6.3935 14.0607C6.62632 14.0292 6.75603 13.9836 6.83253 13.9381C6.91235 13.896 7.4312 13.3984 7.98996 12.8376C8.54873 12.2734 9.02434 11.8002 9.04762 11.7897C9.06758 11.7792 9.94563 12.4311 11.0166 13.2582C12.0776 14.0748 12.9989 14.7722 13.0621 14.8072C13.1253 14.8423 13.2616 14.8984 13.3614 14.9369C13.4612 14.972 13.5809 15 13.6275 15C13.674 15 13.7904 14.9544 13.8902 14.9019C14.0199 14.8353 14.1031 14.7582 14.1829 14.632C14.2461 14.5339 14.3193 14.3762 14.3459 14.2815C14.3725 14.1834 14.9811 11.222 15.6962 7.69276C16.8969 1.79089 17 1.25117 17 0.946262C17 0.662383 16.9867 0.588785 16.9202 0.441589C16.8736 0.346963 16.7905 0.231308 16.7372 0.189252C16.684 0.147196 16.5776 0.0876168 16.5044 0.0560747C16.4313 0.0245327 16.3248 0 16.2716 0C16.2184 0.00350467 16.0521 0.0490655 15.9058 0.101636Z" fill="#0060F8"/>
</svg>
